name C:\Users\antoi\Documents\MyRepositories\upper-imu-dc\Results\main_tracking\Case_70\ABD01_orientations_groundFrame.mot
datacolumns 13
datarows 21
range 8.06000000 8.26000000
endheader 
time	radius_imu_[0][0]	radius_imu_[0][1]	radius_imu_[0][2]	radius_imu_[1][0]	radius_imu_[1][1]	radius_imu_[1][2]	radius_imu_[2][0]	radius_imu_[2][1]	radius_imu_[2][2]	radius_imu_x	radius_imu_y	radius_imu_z	
          8.06000000	          0.97784965	         -0.06086455	          0.20026376	         -0.20930711	         -0.28789187	          0.93450993	          0.00077578	         -0.95572683	         -0.29425434	         -1.87584394	          0.20162713	          0.06216306	
          8.07000000	          0.97756250	         -0.05900610	          0.20221238	         -0.21064559	         -0.27381553	          0.93843140	         -0.00000429	         -0.95997049	         -0.28010117	         -1.86085625	          0.20361644	          0.06028729	
          8.08000000	          0.97734595	         -0.05689531	          0.20385737	         -0.21164708	         -0.25978744	          0.94218682	         -0.00064643	         -0.96398828	         -0.26594392	         -1.84590173	          0.20529642	          0.05814847	
          8.09000000	          0.97719566	         -0.05454791	          0.20521495	         -0.21233780	         -0.24581989	          0.94577230	         -0.00114399	         -0.96777947	         -0.25179671	         -1.83099470	          0.20668333	          0.05576300	
          8.10000000	          0.97710656	         -0.05198177	          0.20630237	         -0.21274525	         -0.23192388	          0.94918427	         -0.00149383	         -0.97134402	         -0.23767322	         -1.81614893	          0.20779452	          0.05314959	
          8.11000000	          0.97707306	         -0.04921649	          0.20713757	         -0.21289754	         -0.21810913	          0.95241957	         -0.00169615	         -0.97468259	         -0.22358663	         -1.80137746	          0.20864817	          0.05032882	
          8.12000000	          0.97708922	         -0.04627303	          0.20773892	         -0.21282288	         -0.20438399	          0.95547559	         -0.00175424	         -0.97779650	         -0.20954935	         -1.78669238	          0.20926289	          0.04732268	
          8.13000000	          0.97714897	         -0.04317330	          0.20812483	         -0.21254900	         -0.19075538	          0.95835031	         -0.00167422	         -0.98068774	         -0.19557286	         -1.77210459	          0.20965742	          0.04415421	
          8.14000000	          0.97724629	         -0.03993988	          0.20831345	         -0.21210267	         -0.17722867	          0.96104238	         -0.00146480	         -0.98335894	         -0.18166741	         -1.75762348	          0.20985026	          0.04084709	
          8.15000000	          0.97737534	         -0.03659571	          0.20832234	         -0.21150922	         -0.16380755	          0.96355121	         -0.00113707	         -0.98581329	         -0.16784179	         -1.74325677	          0.20985935	          0.03742536	
          8.16000000	          0.97753063	         -0.03316394	          0.20816825	         -0.21079225	         -0.15049391	          0.96587691	         -0.00070423	         -0.98805452	         -0.15410311	         -1.72901021	          0.20970181	          0.03391323	
          8.17000000	          0.97770709	         -0.02966767	          0.20786697	         -0.20997337	         -0.13728771	          0.96802028	         -0.00018133	         -0.99008682	         -0.14045659	         -1.71488750	          0.20939379	          0.03033482	
          8.18000000	          0.97790013	         -0.02612989	          0.20743326	         -0.20907213	         -0.12418694	          0.96998270	          0.00041496	         -0.99191473	         -0.12690546	         -1.70089010	          0.20895042	          0.02671406	
          8.19000000	          0.97810570	         -0.02257327	          0.20688087	         -0.20810600	         -0.11118761	          0.97176602	          0.00106665	         -0.99354303	         -0.11345087	         -1.68701731	          0.20838577	          0.02307446	
          8.20000000	          0.97832024	         -0.01901999	          0.20622256	         -0.20709038	         -0.09828385	          0.97337242	          0.00175481	         -0.99497665	         -0.10009193	         -1.67326622	          0.20771296	          0.01943903	
          8.21000000	          0.97854076	         -0.01549159	          0.20547017	         -0.20603866	         -0.08546797	          0.97480424	          0.00245985	         -0.99622048	         -0.08682576	         -1.65963184	          0.20694410	          0.01583000	
          8.22000000	          0.97876477	         -0.01200871	          0.20463459	         -0.20496226	         -0.07273074	          0.97606389	          0.00316196	         -0.99727931	         -0.07364762	         -1.64610731	          0.20609038	          0.01226863	
          8.23000000	          0.97899031	         -0.00859080	          0.20372572	         -0.20387058	         -0.06006158	          0.97715372	          0.00384156	         -0.99815771	         -0.06055111	         -1.63268402	          0.20516196	          0.00877493	
          8.24000000	          0.97921593	         -0.00525587	          0.20275242	         -0.20277105	         -0.04744882	          0.97807592	          0.00447973	         -0.99885984	         -0.04752838	         -1.61935188	          0.20416791	          0.00536737	
          8.25000000	          0.97944065	         -0.00202024	          0.20172239	         -0.20166907	         -0.03487997	          0.97883245	          0.00505860	         -0.99938947	         -0.03457028	         -1.60609953	          0.20311615	          0.00206264	
          8.26000000	          0.97966398	          0.00110169	          0.20064217	         -0.20056810	         -0.02234192	          0.97942497	          0.00556175	         -0.99974978	         -0.02166662	         -1.59291449	          0.20201338	         -0.00112456	
